<svg width="1317" height="291" viewBox="0 0 1317 291" fill="none" xmlns="http://www.w3.org/2000/svg">
<path d="M736.814 100.738C731.538 99.412 726.12 98.7403 720.68 98.7385H678.68C678.416 98.7329 678.153 98.7808 677.908 98.8793C677.663 98.9778 677.44 99.1249 677.253 99.3118C677.066 99.4986 676.919 99.7213 676.821 99.9665C676.722 100.212 676.674 100.474 676.68 100.738V240.738C676.674 241.003 676.722 241.265 676.821 241.51C676.919 241.756 677.066 241.978 677.253 242.165C677.44 242.352 677.663 242.499 677.908 242.598C678.153 242.696 678.416 242.744 678.68 242.738H720.68C755.725 242.738 788.68 214.738 788.68 170.738C788.68 133.604 765.206 107.866 736.814 100.738ZM720.68 222.738H698.68C698.416 222.744 698.153 222.696 697.908 222.598C697.663 222.499 697.44 222.352 697.253 222.165C697.066 221.978 696.919 221.756 696.821 221.51C696.722 221.265 696.674 221.003 696.68 220.738V120.738C696.674 120.474 696.722 120.212 696.821 119.967C696.919 119.721 697.066 119.499 697.253 119.312C697.44 119.125 697.663 118.978 697.908 118.879C698.153 118.781 698.416 118.733 698.68 118.738H720.68C746.47 118.738 768.68 142.738 768.68 170.738C768.68 198.738 743.768 222.738 720.68 222.738H720.68Z" fill="#302D2D"/>
<path d="M945.252 222.455C945.097 221.986 944.773 221.59 944.343 221.346C943.913 221.102 943.408 221.027 942.926 221.134C940.309 221.717 935.593 222.738 934.68 222.738C926.68 222.738 926.68 214.738 926.68 214.738V100.738C926.685 100.474 926.638 100.212 926.539 99.9665C926.44 99.7213 926.293 99.4986 926.107 99.3118C925.92 99.1249 925.697 98.9778 925.452 98.8793C925.207 98.7808 924.944 98.7329 924.68 98.7385H908.68C908.416 98.7329 908.153 98.7808 907.908 98.8793C907.663 98.9778 907.44 99.1249 907.253 99.3118C907.066 99.4986 906.919 99.7213 906.821 99.9665C906.722 100.212 906.674 100.474 906.68 100.738V100.738V214.738C906.68 214.738 906.68 242.738 934.68 242.738C939.959 242.738 946.026 240.621 948.94 239.467C949.414 239.279 949.798 238.916 950.013 238.452C950.228 237.989 950.256 237.461 950.093 236.977L945.252 222.455Z" fill="#302D2D"/>
<path d="M1204.68 146.738H1188.68C1188.42 146.733 1188.15 146.781 1187.91 146.879C1187.66 146.978 1187.44 147.125 1187.25 147.312C1187.07 147.499 1186.92 147.721 1186.82 147.967C1186.72 148.212 1186.67 148.474 1186.68 148.738V240.738C1186.67 241.003 1186.72 241.265 1186.82 241.51C1186.92 241.756 1187.07 241.978 1187.25 242.165C1187.44 242.352 1187.66 242.499 1187.91 242.598C1188.15 242.696 1188.42 242.744 1188.68 242.738H1204.68C1204.94 242.744 1205.21 242.696 1205.45 242.598C1205.7 242.499 1205.92 242.352 1206.11 242.165C1206.29 241.978 1206.44 241.756 1206.54 241.51C1206.64 241.265 1206.69 241.003 1206.68 240.738V148.738C1206.69 148.474 1206.64 148.212 1206.54 147.967C1206.44 147.721 1206.29 147.499 1206.11 147.312C1205.92 147.125 1205.7 146.978 1205.45 146.879C1205.21 146.781 1204.94 146.733 1204.68 146.738V146.738Z" fill="#302D2D"/>
<path d="M1196.68 118.75C1198.66 118.748 1200.59 118.161 1202.23 117.062C1203.87 115.964 1205.15 114.403 1205.9 112.578C1206.66 110.753 1206.86 108.745 1206.47 106.808C1206.08 104.871 1205.13 103.091 1203.74 101.694C1202.34 100.298 1200.56 99.3464 1198.62 98.9606C1196.69 98.5748 1194.68 98.7719 1192.85 99.527C1191.03 100.282 1189.47 101.561 1188.37 103.203C1187.27 104.844 1186.68 106.775 1186.68 108.75C1186.68 111.402 1187.73 113.946 1189.61 115.821C1191.48 117.696 1194.03 118.75 1196.68 118.75V118.75Z" fill="#302D2D"/>
<path d="M885.173 215.737L869.35 210.738C868.96 210.612 868.54 210.609 868.149 210.732C867.758 210.854 867.414 211.095 867.166 211.422C864.624 214.999 861.247 217.9 857.327 219.872C853.408 221.845 849.065 222.829 844.678 222.738C839.142 222.791 833.718 221.179 829.111 218.109C824.503 215.04 820.925 210.656 818.841 205.528C818.712 205.223 818.661 204.891 818.691 204.561C818.722 204.232 818.833 203.915 819.016 203.639C819.198 203.363 819.446 203.136 819.737 202.979C820.029 202.822 820.354 202.739 820.685 202.738H890.285C890.774 202.736 891.247 202.555 891.613 202.23C891.979 201.905 892.214 201.457 892.273 200.971C892.514 198.898 892.65 196.814 892.68 194.727C892.68 166.727 870.68 146.727 844.68 146.727C818.68 146.727 796.68 166.727 796.68 194.727C796.632 201.044 797.841 207.308 800.236 213.154C802.631 219 806.164 224.311 810.631 228.779C815.097 233.247 820.408 236.781 826.253 239.178C832.098 241.575 838.362 242.785 844.679 242.738C870.708 242.738 880.702 228.696 886.326 218.617C886.47 218.357 886.554 218.069 886.572 217.772C886.591 217.476 886.543 217.179 886.433 216.904C886.323 216.628 886.152 216.38 885.934 216.178C885.716 215.977 885.456 215.826 885.173 215.737V215.737ZM821.777 184.738C821.431 184.737 821.092 184.647 820.791 184.477C820.491 184.306 820.239 184.061 820.061 183.765C819.883 183.469 819.785 183.132 819.775 182.787C819.765 182.441 819.845 182.099 820.006 181.794C822.341 177.262 825.879 173.461 830.232 170.807C834.584 168.153 839.584 166.75 844.682 166.75C849.78 166.75 854.779 168.154 859.132 170.808C863.485 173.462 867.022 177.264 869.357 181.796C869.517 182.102 869.596 182.443 869.586 182.789C869.576 183.134 869.477 183.47 869.299 183.766C869.121 184.062 868.87 184.307 868.569 184.477C868.269 184.647 867.93 184.737 867.585 184.738H821.777Z" fill="#302D2D"/>
<path d="M1013.91 146.754C1003.44 146.47 993.175 149.63 984.679 155.749V148.739C984.679 148.208 984.469 147.699 984.094 147.324C983.719 146.949 983.21 146.739 982.679 146.739H966.679C966.149 146.739 965.64 146.949 965.265 147.324C964.89 147.699 964.679 148.208 964.679 148.739V288.739C964.679 289.269 964.89 289.778 965.265 290.153C965.64 290.528 966.149 290.739 966.679 290.739H982.679C983.21 290.739 983.719 290.528 984.094 290.153C984.469 289.778 984.679 289.269 984.679 288.739V233.729C992.833 239.602 1002.63 242.755 1012.68 242.739C1039.81 242.739 1060.68 222.115 1060.68 194.739C1060.68 168.738 1039.05 147.383 1013.91 146.754ZM1012.68 222.75C1007.14 222.75 1001.73 221.108 997.124 218.031C992.519 214.954 988.931 210.581 986.811 205.465C984.692 200.349 984.138 194.719 985.218 189.287C986.298 183.856 988.965 178.867 992.881 174.951C996.797 171.035 1001.79 168.368 1007.22 167.288C1012.65 166.208 1018.28 166.762 1023.4 168.881C1028.51 171.001 1032.88 174.589 1035.96 179.194C1039.04 183.799 1040.68 189.212 1040.68 194.75C1040.68 202.176 1037.73 209.297 1032.48 214.547C1027.23 219.798 1020.11 222.749 1012.68 222.75Z" fill="#302D2D"/>
<path d="M1120.68 146.738C1110.63 146.722 1100.83 149.875 1092.68 155.749V100.738C1092.72 100.466 1092.7 100.187 1092.62 99.9246C1092.53 99.6622 1092.39 99.4237 1092.19 99.2285C1091.99 99.0334 1091.76 98.8873 1091.49 98.8021C1091.23 98.717 1090.95 98.6951 1090.68 98.7385H1074.68C1074.41 98.6951 1074.13 98.717 1073.87 98.8021C1073.6 98.8873 1073.37 99.0334 1073.17 99.2285C1072.97 99.4237 1072.83 99.6622 1072.74 99.9246C1072.66 100.187 1072.64 100.466 1072.68 100.738V240.738C1072.64 241.011 1072.66 241.29 1072.74 241.552C1072.83 241.815 1072.97 242.053 1073.17 242.249C1073.37 242.444 1073.6 242.59 1073.87 242.675C1074.13 242.76 1074.41 242.782 1074.68 242.738H1090.68C1090.95 242.782 1091.23 242.76 1091.49 242.675C1091.76 242.59 1091.99 242.444 1092.19 242.248C1092.39 242.053 1092.53 241.815 1092.62 241.552C1092.7 241.29 1092.72 241.011 1092.68 240.738V194.738C1092.68 187.312 1095.63 180.191 1100.88 174.94C1106.13 169.688 1113.25 166.738 1120.68 166.738C1128.11 166.738 1135.23 169.688 1140.48 174.94C1145.73 180.191 1148.68 187.312 1148.68 194.738V240.738C1148.64 241.011 1148.66 241.29 1148.74 241.552C1148.83 241.815 1148.97 242.053 1149.17 242.249C1149.37 242.444 1149.6 242.59 1149.87 242.675C1150.13 242.76 1150.41 242.782 1150.68 242.738H1166.68C1166.95 242.782 1167.23 242.76 1167.49 242.675C1167.76 242.59 1167.99 242.444 1168.19 242.248C1168.39 242.053 1168.53 241.815 1168.62 241.552C1168.7 241.29 1168.72 241.011 1168.68 240.738V194.738C1168.68 182.008 1163.62 169.799 1154.62 160.797C1145.62 151.796 1133.41 146.738 1120.68 146.738Z" fill="#302D2D"/>
<path d="M1282.68 194.738L1316.23 150.009C1316.52 149.649 1316.68 149.201 1316.68 148.738C1316.68 148.208 1316.47 147.699 1316.09 147.324C1315.72 146.949 1315.21 146.738 1314.68 146.738H1295.68C1295.39 146.738 1295.1 146.803 1294.83 146.927C1294.57 147.052 1294.33 147.233 1294.15 147.459C1294.1 147.507 1294.06 147.561 1294.03 147.619L1270.69 178.742L1247.34 147.619C1247.3 147.569 1247.26 147.509 1247.22 147.459C1247.03 147.233 1246.8 147.052 1246.53 146.927C1246.27 146.803 1245.98 146.738 1245.68 146.738H1226.79C1226.32 146.726 1225.86 146.873 1225.49 147.154C1225.11 147.436 1224.85 147.837 1224.73 148.29C1224.67 148.558 1224.66 148.835 1224.71 149.104C1224.76 149.374 1224.87 149.631 1225.02 149.859L1225.14 150.009L1258.69 194.738L1225.14 239.469L1225.02 239.619C1224.87 239.846 1224.76 240.103 1224.71 240.373C1224.66 240.642 1224.67 240.919 1224.73 241.187C1224.85 241.641 1225.11 242.041 1225.49 242.323C1225.86 242.604 1226.32 242.751 1226.79 242.739H1245.68C1245.98 242.739 1246.27 242.674 1246.53 242.55C1246.8 242.426 1247.03 242.244 1247.22 242.019C1247.26 241.969 1247.3 241.909 1247.34 241.859L1270.69 210.735L1294.03 241.859C1294.06 241.916 1294.1 241.97 1294.15 242.019C1294.33 242.244 1294.57 242.425 1294.83 242.55C1295.1 242.674 1295.39 242.739 1295.68 242.739H1314.68C1314.94 242.739 1315.2 242.687 1315.45 242.587C1315.69 242.486 1315.91 242.339 1316.09 242.153C1316.28 241.967 1316.43 241.747 1316.53 241.504C1316.63 241.261 1316.68 241.001 1316.68 240.739C1316.68 240.276 1316.52 239.828 1316.23 239.469L1282.68 194.738Z" fill="#302D2D"/>
<path d="M362.892 192.938L363.213 193.243L327.102 145.511L362.892 98.085C377.932 77.5909 387.929 70.2824 406.394 63.21C397.259 59.9596 387.628 58.3235 377.932 58.3751C349.768 58.3751 324.009 71.8851 308.675 93.0501L298.057 107.389L262.084 58.4407C248.497 40.3819 230.898 25.728 210.678 15.6353C190.457 5.54259 168.168 0.287327 145.568 0.284203H87.4772C97.3922 0.319838 107.28 1.33354 116.995 3.3106C152.035 10.3938 183.204 30.2188 204.473 58.9514L269.011 145.511L204.596 232.063L204.473 232.071C183.204 260.804 152.035 280.629 116.995 287.712C107.28 289.689 97.3922 290.703 87.4772 290.739H145.568C168.168 290.735 190.457 285.48 210.678 275.387C230.898 265.295 248.497 250.641 262.084 232.582L298.057 183.634L308.674 197.973C324.008 219.138 349.767 232.648 377.931 232.648C387.628 232.699 397.259 231.063 406.394 227.813C387.929 220.74 377.932 213.432 362.892 192.938Z" fill="#16597D"/>
<path d="M116.502 227.672C103.361 232.309 89.2987 233.727 75.4963 231.806C61.6939 229.884 48.5535 224.681 37.1778 216.632C25.8021 208.582 16.5228 197.922 10.1186 185.545C3.71445 173.169 0.372131 159.437 0.372131 145.501C0.372131 131.566 3.71445 117.833 10.1186 105.457C16.5228 93.0799 25.8021 82.4196 37.1778 74.3704C48.5535 66.3211 61.6939 61.1177 75.4963 59.1966C89.2987 57.2755 103.361 58.6928 116.502 63.3297C99.5124 69.3405 84.8036 80.4697 74.4004 95.1853C63.9972 109.901 58.4111 127.479 58.4111 145.501C58.4111 163.523 63.9972 181.101 74.4004 195.817C84.8036 210.532 99.5124 221.662 116.502 227.672Z" fill="#16597D"/>
<path d="M581.229 145.511C581.233 164.584 577.479 183.471 570.182 201.092C562.885 218.714 552.188 234.725 538.702 248.211C525.215 261.698 509.204 272.395 491.582 279.692C473.961 286.989 455.074 290.743 436.002 290.739H377.936C387.694 290.744 397.427 289.769 406.99 287.829C472.847 274.422 522.612 215.392 523.138 145.511C522.612 75.6308 472.785 16.6026 406.928 3.1956C397.378 1.2544 387.657 0.27902 377.911 0.2842H436.002C455.074 0.280285 473.961 4.03403 491.583 11.331C509.204 18.628 525.215 29.3252 538.702 42.8115C552.188 56.2979 562.885 72.3092 570.182 89.9307C577.479 107.552 581.233 126.439 581.229 145.511Z" fill="#16597D"/>
<path d="M523.138 145.579C523.139 145.646 523.139 145.575 523.138 145.501C523.138 145.53 523.138 145.511 523.138 145.511" fill="#16597D"/>
<path d="M522.734 145.579C522.735 145.646 522.735 145.575 522.734 145.501V145.579Z" fill="#16597D"/>
<path d="M521.827 145.579L522.735 145.501V145.511" fill="#16597D"/>
<path d="M522.735 145.511L522.736 145.423C522.736 145.376 522.735 145.37 522.735 145.501" fill="#16597D"/>
<path d="M522.735 145.501L522.736 145.423C522.735 145.376 522.735 145.37 522.735 145.501Z" fill="#16597D"/>
<path d="M522.735 145.423L523.642 145.501L522.735 145.579V145.501V145.511" fill="#16597D"/>
<path d="M522.735 145.423L523.642 145.501L522.735 145.579V145.501V145.423Z" fill="#16597D"/>
<path d="M522.735 145.511C522.735 145.511 522.735 145.472 522.735 145.501C522.735 145.427 522.735 145.356 522.735 145.424" fill="#16597D"/>
</svg>
